<?xml version="1.0" encoding="UTF-8"?>
<svg id="Layer_1" data-name="Layer 1" xmlns="http://www.w3.org/2000/svg" viewBox="0 0 2563.61 2707.15">
  <defs>
    <style>
      .cls-1 {
        fill: #4d4d4d;
      }

      .cls-2 {
        fill: none;
        stroke: #000;
        stroke-miterlimit: 10;
      }
    </style>
  </defs>
  <path class="cls-1" d="m2341.76,1155.5c-753.04-165.69-399.67,434.74-692.31,380.77-209.88-38.7-383.27-343.74-311.54-488.46,87.18-175.86,474.32,10.15,753.85-226.92,208.86-177.14,293.71-536.25,169.23-707.69C2116.55-85.75,1365.22,3.23,922.53,190.12,487.91,424.73,202.84,147.18,49.45,367.04c-96.01,137.63-24.01,494.92-7.69,661.54,70.03,715.08,460.64,531.33,523.88,768.92,73.33,275.53-247.56,82.9-185.42,392.62,43.18,215.21,277.73,329.11,388.46,388.46,498.72,267.3,1382.01,109.02,1676.92-407.69,220.85-386.93,98.35-970.9-103.84-1015.39Zm-426.92,1046.16c-414.87,257.74-1034.93,250.78-1063.5,82.05-41.12-242.83,300.48-212.18,251.96-428.21-41.85-186.28-629.94-515.39-709.99-756.73-40.51-122.17-58.44-410.77,5.09-518.67,101.5-172.38,290.14,45.23,577.72-138.72,292.93-146.52,790.09-216.29,885.67-60.31,82.37,134.42-152.23,138.41-290.44,277.29-184.97,185.87-419.28,118.18-521.1,227.6-669.23,719.24,418.44,978.5,560.33,987.31,575.82,35.77,372.23-305.31,506.07-258.5,131.38,45.94,84.21,409.19-201.81,586.89Z"/>
  <path class="cls-2" d="m2341.76,1155.5c-753.04-165.69-399.67,434.74-692.31,380.77-209.88-38.7-383.27-343.74-311.54-488.46,87.18-175.86,474.32,10.15,753.85-226.92,208.86-177.14,293.71-536.25,169.23-707.69C2116.55-85.75,1365.22,3.23,922.53,190.12,487.91,424.73,202.84,147.18,49.45,367.04c-96.01,137.63-24.01,494.92-7.69,661.54,70.03,715.08,460.64,531.33,523.88,768.92,73.33,275.53-247.56,82.9-185.42,392.62,43.18,215.21,277.73,329.11,388.46,388.46,498.72,267.3,1382.01,109.02,1676.92-407.69,220.85-386.93,98.35-970.9-103.84-1015.39Zm-426.92,1046.16c-414.87,257.74-1034.93,250.78-1063.5,82.05-41.12-242.83,300.48-212.18,251.96-428.21-41.85-186.28-629.94-515.39-709.99-756.73-40.51-122.17-58.44-410.77,5.09-518.67,101.5-172.38,290.14,45.23,577.72-138.72,292.93-146.52,790.09-216.29,885.67-60.31,82.37,134.42-152.23,138.41-290.44,277.29-184.97,185.87-419.28,118.18-521.1,227.6-669.23,719.24,418.44,978.5,560.33,987.31,575.82,35.77,372.23-305.31,506.07-258.5,131.38,45.94,84.21,409.19-201.81,586.89Z"/>
</svg>